<svg width="837" height="553" viewBox="0 0 837 553" fill="none" xmlns="http://www.w3.org/2000/svg">
<g opacity="0.5">
<path d="M836.192 121.108L835.406 121.108" stroke="black" stroke-miterlimit="10"/>
<path d="M833.832 121.108L1.57318 121.108" stroke="black" stroke-miterlimit="10" stroke-dasharray="1.28 1.28"/>
<path d="M0.786853 121.108L0.000258308 121.108" stroke="black" stroke-miterlimit="10"/>
</g>
<g opacity="0.5">
<path d="M836.192 243.703L835.406 243.703" stroke="black" stroke-miterlimit="10"/>
<path d="M833.832 243.703L1.57318 243.704" stroke="black" stroke-miterlimit="10" stroke-dasharray="1.28 1.28"/>
<path d="M0.786853 243.703L0.000258308 243.703" stroke="black" stroke-miterlimit="10"/>
</g>
<g opacity="0.5">
<path d="M836.192 366.299L835.406 366.299" stroke="black" stroke-miterlimit="10"/>
<path d="M833.832 366.299L1.57318 366.299" stroke="black" stroke-miterlimit="10" stroke-dasharray="1.28 1.28"/>
<path d="M0.786853 366.299L0.000258308 366.299" stroke="black" stroke-miterlimit="10"/>
</g>
<g opacity="0.5">
<path d="M836.192 486.399L835.406 486.399" stroke="black" stroke-miterlimit="10"/>
<path d="M833.832 486.399L1.57318 486.399" stroke="black" stroke-miterlimit="10" stroke-dasharray="1.28 1.28"/>
<path d="M0.786853 486.399L0.000258308 486.399" stroke="black" stroke-miterlimit="10"/>
</g>
<g opacity="0.2">
<path d="M836.192 456.374L835.406 456.374" stroke="black" stroke-miterlimit="10"/>
<path d="M833.832 456.374L1.57318 456.374" stroke="black" stroke-miterlimit="10" stroke-dasharray="1.28 1.28"/>
<path d="M0.786853 456.374L0.000258308 456.374" stroke="black" stroke-miterlimit="10"/>
</g>
<g opacity="0.2">
<path d="M836.192 426.349L835.406 426.349" stroke="black" stroke-miterlimit="10"/>
<path d="M833.832 426.349L1.57318 426.349" stroke="black" stroke-miterlimit="10" stroke-dasharray="1.28 1.28"/>
<path d="M0.786853 426.349L0.000258308 426.349" stroke="black" stroke-miterlimit="10"/>
</g>
<g opacity="0.2">
<path d="M836.192 396.324L835.406 396.324" stroke="black" stroke-miterlimit="10"/>
<path d="M833.832 396.324L1.57318 396.324" stroke="black" stroke-miterlimit="10" stroke-dasharray="1.28 1.28"/>
<path d="M0.786853 396.324L0.000258308 396.324" stroke="black" stroke-miterlimit="10"/>
</g>
<g opacity="0.2">
<path d="M836.192 340.882L835.406 340.882" stroke="black" stroke-miterlimit="10"/>
<path d="M833.832 340.882L1.57318 340.882" stroke="black" stroke-miterlimit="10" stroke-dasharray="1.28 1.28"/>
<path d="M0.786853 340.882L0.000258308 340.882" stroke="black" stroke-miterlimit="10"/>
</g>
<g opacity="0.2">
<path d="M836.192 310.857L835.406 310.857" stroke="black" stroke-miterlimit="10"/>
<path d="M833.832 310.857L1.57318 310.857" stroke="black" stroke-miterlimit="10" stroke-dasharray="1.28 1.28"/>
<path d="M0.786853 310.857L0.000258308 310.857" stroke="black" stroke-miterlimit="10"/>
</g>
<g opacity="0.2">
<path d="M836.192 280.832L835.406 280.832" stroke="black" stroke-miterlimit="10"/>
<path d="M833.832 280.832L1.57318 280.832" stroke="black" stroke-miterlimit="10" stroke-dasharray="1.28 1.28"/>
<path d="M0.786853 280.832L0.000258308 280.832" stroke="black" stroke-miterlimit="10"/>
</g>
<g opacity="0.2">
<path d="M836.192 212.425L835.406 212.425" stroke="black" stroke-miterlimit="10"/>
<path d="M833.832 212.425L1.57318 212.425" stroke="black" stroke-miterlimit="10" stroke-dasharray="1.28 1.28"/>
<path d="M0.786853 212.425L0.000258308 212.425" stroke="black" stroke-miterlimit="10"/>
</g>
<g opacity="0.2">
<path d="M836.192 182.4L835.406 182.4" stroke="black" stroke-miterlimit="10"/>
<path d="M833.832 182.4L1.57318 182.4" stroke="black" stroke-miterlimit="10" stroke-dasharray="1.28 1.28"/>
<path d="M0.786853 182.4L0.000258308 182.4" stroke="black" stroke-miterlimit="10"/>
</g>
<g opacity="0.2">
<path d="M836.192 152.375L835.406 152.375" stroke="black" stroke-miterlimit="10"/>
<path d="M833.832 152.375L1.57318 152.375" stroke="black" stroke-miterlimit="10" stroke-dasharray="1.28 1.28"/>
<path d="M0.786853 152.375L0.000258308 152.375" stroke="black" stroke-miterlimit="10"/>
</g>
<g opacity="0.2">
<path d="M836.192 89.5343L835.406 89.5343" stroke="black" stroke-miterlimit="10"/>
<path d="M833.832 89.5342L1.57318 89.5343" stroke="black" stroke-miterlimit="10" stroke-dasharray="1.28 1.28"/>
<path d="M0.786853 89.5343L0.000258308 89.5343" stroke="black" stroke-miterlimit="10"/>
</g>
<g opacity="0.2">
<path d="M836.192 59.5092L835.406 59.5092" stroke="black" stroke-miterlimit="10"/>
<path d="M833.832 59.5092L1.57318 59.5093" stroke="black" stroke-miterlimit="10" stroke-dasharray="1.28 1.28"/>
<path d="M0.786853 59.5092L0.000258308 59.5092" stroke="black" stroke-miterlimit="10"/>
</g>
<g opacity="0.2">
<path d="M836.192 29.4841L835.406 29.4841" stroke="black" stroke-miterlimit="10"/>
<path d="M833.832 29.4841L1.57318 29.4842" stroke="black" stroke-miterlimit="10" stroke-dasharray="1.28 1.28"/>
<path d="M0.786853 29.4841L0.000258308 29.4841" stroke="black" stroke-miterlimit="10"/>
</g>
<g opacity="0.2">
<path d="M746.338 553L746.338 552.361" stroke="black" stroke-miterlimit="10"/>
<path d="M746.338 551.083L746.338 1.2782" stroke="black" stroke-miterlimit="10" stroke-dasharray="1.04 1.04"/>
<path d="M746.338 0.639282L746.338 0.000165033" stroke="black" stroke-miterlimit="10"/>
</g>
<g opacity="0.2">
<path d="M776.363 553L776.363 552.361" stroke="black" stroke-miterlimit="10"/>
<path d="M776.363 551.083L776.363 1.2782" stroke="black" stroke-miterlimit="10" stroke-dasharray="1.04 1.04"/>
<path d="M776.363 0.63916L776.363 4.29626e-05" stroke="black" stroke-miterlimit="10"/>
</g>
<g opacity="0.2">
<path d="M806.388 553L806.388 552.361" stroke="black" stroke-miterlimit="10"/>
<path d="M806.388 551.083L806.388 1.2782" stroke="black" stroke-miterlimit="10" stroke-dasharray="1.04 1.04"/>
<path d="M806.388 0.639282L806.388 0.000165033" stroke="black" stroke-miterlimit="10"/>
</g>
<g opacity="0.2">
<path d="M623.595 553L623.595 552.361" stroke="black" stroke-miterlimit="10"/>
<path d="M623.595 551.083L623.595 1.27826" stroke="black" stroke-miterlimit="10" stroke-dasharray="1.04 1.04"/>
<path d="M623.595 0.639221L623.595 0.000103998" stroke="black" stroke-miterlimit="10"/>
</g>
<g opacity="0.2">
<path d="M653.62 553L653.62 552.361" stroke="black" stroke-miterlimit="10"/>
<path d="M653.62 551.083L653.62 1.27826" stroke="black" stroke-miterlimit="10" stroke-dasharray="1.04 1.04"/>
<path d="M653.62 0.639221L653.62 0.000103998" stroke="black" stroke-miterlimit="10"/>
</g>
<g opacity="0.2">
<path d="M683.645 553L683.645 552.361" stroke="black" stroke-miterlimit="10"/>
<path d="M683.645 551.083L683.645 1.27826" stroke="black" stroke-miterlimit="10" stroke-dasharray="1.04 1.04"/>
<path d="M683.645 0.639221L683.645 0.000103998" stroke="black" stroke-miterlimit="10"/>
</g>
<g opacity="0.2">
<path d="M503.322 553L503.322 552.361" stroke="black" stroke-miterlimit="10"/>
<path d="M503.322 551.083L503.322 1.27826" stroke="black" stroke-miterlimit="10" stroke-dasharray="1.04 1.04"/>
<path d="M503.322 0.639221L503.322 0.000103998" stroke="black" stroke-miterlimit="10"/>
</g>
<g opacity="0.2">
<path d="M533.348 553L533.348 552.361" stroke="black" stroke-miterlimit="10"/>
<path d="M533.348 551.083L533.348 1.27826" stroke="black" stroke-miterlimit="10" stroke-dasharray="1.04 1.04"/>
<path d="M533.348 0.639221L533.348 0.000103998" stroke="black" stroke-miterlimit="10"/>
</g>
<g opacity="0.2">
<path d="M563.373 553L563.373 552.361" stroke="black" stroke-miterlimit="10"/>
<path d="M563.373 551.083L563.373 1.27826" stroke="black" stroke-miterlimit="10" stroke-dasharray="1.04 1.04"/>
<path d="M563.373 0.639221L563.373 0.000103998" stroke="black" stroke-miterlimit="10"/>
</g>
<g opacity="0.2">
<path d="M382.756 553L382.756 552.361" stroke="black" stroke-miterlimit="10"/>
<path d="M382.756 551.083L382.756 1.27826" stroke="black" stroke-miterlimit="10" stroke-dasharray="1.04 1.04"/>
<path d="M382.756 0.639343L382.756 0.000226068" stroke="black" stroke-miterlimit="10"/>
</g>
<g opacity="0.2">
<path d="M412.781 553L412.781 552.361" stroke="black" stroke-miterlimit="10"/>
<path d="M412.781 551.083L412.781 1.27826" stroke="black" stroke-miterlimit="10" stroke-dasharray="1.04 1.04"/>
<path d="M412.781 0.639343L412.781 0.000226068" stroke="black" stroke-miterlimit="10"/>
</g>
<g opacity="0.2">
<path d="M442.806 553L442.806 552.361" stroke="black" stroke-miterlimit="10"/>
<path d="M442.806 551.083L442.806 1.27826" stroke="black" stroke-miterlimit="10" stroke-dasharray="1.04 1.04"/>
<path d="M442.806 0.639343L442.806 0.000226068" stroke="black" stroke-miterlimit="10"/>
</g>
<g opacity="0.2">
<path d="M262.189 553L262.189 552.361" stroke="black" stroke-miterlimit="10"/>
<path d="M262.189 551.083L262.189 1.2782" stroke="black" stroke-miterlimit="10" stroke-dasharray="1.04 1.04"/>
<path d="M262.189 0.63916L262.189 4.29626e-05" stroke="black" stroke-miterlimit="10"/>
</g>
<g opacity="0.2">
<path d="M292.214 553L292.214 552.361" stroke="black" stroke-miterlimit="10"/>
<path d="M292.214 551.083L292.214 1.27826" stroke="black" stroke-miterlimit="10" stroke-dasharray="1.04 1.04"/>
<path d="M292.214 0.639221L292.214 0.000103998" stroke="black" stroke-miterlimit="10"/>
</g>
<g opacity="0.2">
<path d="M322.239 553L322.239 552.361" stroke="black" stroke-miterlimit="10"/>
<path d="M322.239 551.083L322.238 1.2782" stroke="black" stroke-miterlimit="10" stroke-dasharray="1.04 1.04"/>
<path d="M322.239 0.63916L322.239 4.29626e-05" stroke="black" stroke-miterlimit="10"/>
</g>
<g opacity="0.2">
<path d="M141.621 553L141.621 552.361" stroke="black" stroke-miterlimit="10"/>
<path d="M141.621 551.083L141.621 1.27826" stroke="black" stroke-miterlimit="10" stroke-dasharray="1.04 1.04"/>
<path d="M141.621 0.639343L141.621 0.000226068" stroke="black" stroke-miterlimit="10"/>
</g>
<g opacity="0.2">
<path d="M171.646 553L171.646 552.361" stroke="black" stroke-miterlimit="10"/>
<path d="M171.646 551.083L171.646 1.2782" stroke="black" stroke-miterlimit="10" stroke-dasharray="1.04 1.04"/>
<path d="M171.646 0.63916L171.646 4.29626e-05" stroke="black" stroke-miterlimit="10"/>
</g>
<g opacity="0.2">
<path d="M201.671 553L201.671 552.361" stroke="black" stroke-miterlimit="10"/>
<path d="M201.671 551.083L201.671 1.27826" stroke="black" stroke-miterlimit="10" stroke-dasharray="1.04 1.04"/>
<path d="M201.671 0.639221L201.671 0.000103998" stroke="black" stroke-miterlimit="10"/>
</g>
<g opacity="0.2">
<path d="M52.0622 553L52.0622 552.361" stroke="black" stroke-miterlimit="10"/>
<path d="M52.0622 551.083L52.0622 1.27826" stroke="black" stroke-miterlimit="10" stroke-dasharray="1.04 1.04"/>
<path d="M52.0622 0.639221L52.0622 0.000103998" stroke="black" stroke-miterlimit="10"/>
</g>
<g opacity="0.2">
<path d="M82.0871 553L82.0871 552.361" stroke="black" stroke-miterlimit="10"/>
<path d="M82.0871 551.083L82.0871 1.27826" stroke="black" stroke-miterlimit="10" stroke-dasharray="1.04 1.04"/>
<path d="M82.0871 0.639221L82.0871 0.000103998" stroke="black" stroke-miterlimit="10"/>
</g>
<g opacity="0.5">
<path d="M713.757 553L713.757 552.213" stroke="black" stroke-miterlimit="10"/>
<path d="M713.757 550.64L713.757 4.7319" stroke="black" stroke-miterlimit="10" stroke-dasharray="1.28 1.28"/>
<path d="M713.757 3.95758L713.757 3.17102" stroke="black" stroke-miterlimit="10"/>
</g>
<g opacity="0.5">
<path d="M593.484 553L593.484 552.213" stroke="black" stroke-miterlimit="10"/>
<path d="M593.484 550.64L593.484 4.7319" stroke="black" stroke-miterlimit="10" stroke-dasharray="1.28 1.28"/>
<path d="M593.484 3.95758L593.484 3.17102" stroke="black" stroke-miterlimit="10"/>
</g>
<g opacity="0.5">
<path d="M473.224 553L473.224 552.213" stroke="black" stroke-miterlimit="10"/>
<path d="M473.224 550.64L473.224 4.7319" stroke="black" stroke-miterlimit="10" stroke-dasharray="1.28 1.28"/>
<path d="M473.224 3.95758L473.224 3.17102" stroke="black" stroke-miterlimit="10"/>
</g>
<g opacity="0.5">
<path d="M352.952 553L352.952 552.213" stroke="black" stroke-miterlimit="10"/>
<path d="M352.952 550.64L352.952 4.7319" stroke="black" stroke-miterlimit="10" stroke-dasharray="1.28 1.28"/>
<path d="M352.952 3.95758L352.952 3.17102" stroke="black" stroke-miterlimit="10"/>
</g>
<g opacity="0.5">
<path d="M232.679 553L232.679 552.213" stroke="black" stroke-miterlimit="10"/>
<path d="M232.679 550.64L232.679 4.73183" stroke="black" stroke-miterlimit="10" stroke-dasharray="1.28 1.28"/>
<path d="M232.679 3.95752L232.679 3.17096" stroke="black" stroke-miterlimit="10"/>
</g>
<g opacity="0.5">
<path d="M112.42 553L112.42 552.213" stroke="black" stroke-miterlimit="10"/>
<path d="M112.42 550.64L112.42 4.7319" stroke="black" stroke-miterlimit="10" stroke-dasharray="1.28 1.28"/>
<path d="M112.42 3.95758L112.42 3.17102" stroke="black" stroke-miterlimit="10"/>
</g>
</svg>
