<svg width="457" height="423" viewBox="0 0 457 423" fill="none" xmlns="http://www.w3.org/2000/svg">
<g opacity="0.62" clip-path="url(#clip0_240_5689)">
<path d="M125.815 529.816C272.004 529.816 390.513 411.331 390.513 265.171C390.513 119.012 272.004 0.526489 125.815 0.526489C-20.3736 0.526489 -138.883 119.012 -138.883 265.171C-138.883 411.331 -20.3736 529.816 125.815 529.816Z" stroke="black" stroke-width="0.48" stroke-miterlimit="10"/>
<path d="M294.315 293.516C311.209 293.516 324.904 279.824 324.904 262.934C324.904 246.044 311.209 232.351 294.315 232.351C277.421 232.351 263.727 246.044 263.727 262.934C263.727 279.824 277.421 293.516 294.315 293.516Z" stroke="black" stroke-width="0.37" stroke-miterlimit="10" stroke-dasharray="2.58 2.58"/>
<path d="M270.924 57.5449C278.498 57.5449 284.638 51.406 284.638 43.8333C284.638 36.2606 278.498 30.1217 270.924 30.1217C263.35 30.1217 257.209 36.2606 257.209 43.8333C257.209 51.406 263.35 57.5449 270.924 57.5449Z" fill="black"/>
<path d="M125.815 369.029C184.106 369.029 231.361 321.784 231.361 263.504C231.361 205.225 184.106 157.98 125.815 157.98C67.5239 157.98 20.2695 205.225 20.2695 263.504C20.2695 321.784 67.5239 369.029 125.815 369.029Z" stroke="black" stroke-width="0.37" stroke-miterlimit="10" stroke-dasharray="2.58 2.58"/>
<path d="M125.815 356.919C177.417 356.919 219.248 315.096 219.248 263.504C219.248 211.913 177.417 170.09 125.815 170.09C74.2133 170.09 32.3818 211.913 32.3818 263.504C32.3818 315.096 74.2133 356.919 125.815 356.919Z" stroke="black" stroke-width="0.37" stroke-miterlimit="10" stroke-dasharray="2.58 2.58"/>
<path d="M125.815 325.941C160.305 325.941 188.264 297.987 188.264 263.504C188.264 229.021 160.305 201.067 125.815 201.067C91.3249 201.067 63.3652 229.021 63.3652 263.504C63.3652 297.987 91.3249 325.941 125.815 325.941Z" stroke="black" stroke-width="0.37" stroke-miterlimit="10" stroke-dasharray="2.58 2.58"/>
<path d="M125.815 293.516C142.393 293.516 155.833 280.079 155.833 263.504C155.833 246.929 142.393 233.492 125.815 233.492C109.236 233.492 95.7969 246.929 95.7969 263.504C95.7969 280.079 109.236 293.516 125.815 293.516Z" stroke="black" stroke-width="0.48" stroke-miterlimit="10"/>
<path d="M125.815 271.161C130.045 271.161 133.473 267.733 133.473 263.504C133.473 259.276 130.045 255.848 125.815 255.848C121.586 255.848 118.157 259.276 118.157 263.504C118.157 267.733 121.586 271.161 125.815 271.161Z" fill="black"/>
<path d="M16.5829 100.698C20.8123 100.698 24.241 97.2701 24.241 93.0415C24.241 88.8129 20.8123 85.3849 16.5829 85.3849C12.3534 85.3849 8.9248 88.8129 8.9248 93.0415C8.9248 97.2701 12.3534 100.698 16.5829 100.698Z" fill="black"/>
<path d="M-138.817 263.504H390.469" stroke="black" stroke-width="0.37" stroke-miterlimit="10" stroke-dasharray="2.58 2.58"/>
<path d="M125.815 0.570435V529.773" stroke="black" stroke-width="0.37" stroke-miterlimit="10" stroke-dasharray="2.58 2.58"/>
<path d="M-52.8006 351.215C-5.27083 351.215 33.2597 312.692 33.2597 265.172C33.2597 217.651 -5.27083 179.128 -52.8006 179.128C-100.33 179.128 -138.861 217.651 -138.861 265.172C-138.861 312.692 -100.33 351.215 -52.8006 351.215Z" stroke="black" stroke-width="0.48" stroke-miterlimit="10"/>
<path d="M-18.5257 385.505C47.9456 385.505 101.831 331.63 101.831 265.172C101.831 198.713 47.9456 144.839 -18.5257 144.839C-84.9971 144.839 -138.883 198.713 -138.883 265.172C-138.883 331.63 -84.9971 385.505 -18.5257 385.505Z" stroke="black" stroke-width="0.48" stroke-miterlimit="10"/>
<path d="M33.2815 437.302C128.365 437.302 205.446 360.236 205.446 265.172C205.446 170.107 128.365 93.0415 33.2815 93.0415C-61.8022 93.0415 -138.883 170.107 -138.883 265.172C-138.883 360.236 -61.8022 437.302 33.2815 437.302Z" stroke="black" stroke-width="0.37" stroke-miterlimit="10" stroke-dasharray="2.58 2.58"/>
<path d="M331.088 321.426C427.632 277.111 479.442 183.575 446.809 112.508C414.175 41.441 309.455 19.7542 212.911 64.0692C116.366 108.384 64.5563 201.92 97.19 272.987C129.824 344.054 234.543 365.741 331.088 321.426Z" stroke="black" stroke-width="0.37" stroke-miterlimit="10" stroke-dasharray="2.58 2.58"/>
<path d="M271.63 340.8C313.237 241.744 246.396 119.218 122.337 67.1299C-1.72202 15.0416 -136.021 53.116 -177.627 152.171C-219.234 251.227 -152.393 373.753 -28.3341 425.841C95.725 477.93 230.024 439.855 271.63 340.8Z" stroke="black" stroke-width="0.37" stroke-miterlimit="10" stroke-dasharray="2.58 2.58"/>
<path d="M262.423 452.811C340.522 317.566 309.37 153.4 192.842 86.1361C76.3144 18.8722 -81.462 73.9819 -159.561 209.227C-237.661 344.472 -206.508 508.638 -89.9807 575.902C26.547 643.165 184.323 588.056 262.423 452.811Z" stroke="black" stroke-width="0.37" stroke-miterlimit="10" stroke-dasharray="2.58 2.58"/>
</g>
<defs>
<clipPath id="clip0_240_5689">
<rect width="660" height="605" fill="white" transform="translate(-203)"/>
</clipPath>
</defs>
</svg>
